<?xml version="1.0" standalone="no"?>
<!DOCTYPE svg PUBLIC "-//W3C//DTD SVG 20010904//EN"
 "http://www.w3.org/TR/2001/REC-SVG-20010904/DTD/svg10.dtd">
<svg version="1.0" xmlns="http://www.w3.org/2000/svg"
 width="500.000000pt" height="500.000000pt" viewBox="0 0 500.000000 500.000000"
 preserveAspectRatio="xMidYMid meet">

<g transform="translate(0.000000,500.000000) scale(0.100000,-0.100000)"
fill="#000000" stroke="none">
<path d="M860 2505 l0 -1185 165 0 165 0 2 617 3 616 121 -199 c67 -109 157
-257 201 -329 44 -71 98 -159 120 -195 39 -65 40 -65 89 -68 l49 -2 61 102
c286 483 397 668 401 665 2 -2 3 -264 3 -581 0 -318 3 -589 6 -602 l6 -25 692
3 691 3 70 24 c229 76 371 211 419 397 19 72 21 229 5 306 -17 82 -72 187
-134 255 -74 82 -178 150 -410 266 -220 111 -295 170 -340 269 -89 194 -24
430 143 521 155 84 348 74 561 -28 52 -25 95 -44 97 -42 7 7 94 241 94 253 0
6 -31 25 -69 42 -172 77 -386 114 -539 93 -194 -27 -311 -81 -428 -196 -90
-89 -121 -137 -161 -246 -25 -68 -27 -87 -28 -219 0 -127 3 -154 24 -219 46
-140 155 -272 303 -368 38 -23 127 -73 200 -109 227 -114 299 -168 349 -266
31 -59 38 -183 15 -263 -22 -74 -90 -143 -173 -177 -57 -22 -67 -23 -470 -26
l-412 -3 -25 -43 c-41 -70 -151 -156 -178 -140 -5 3 -8 495 -8 1095 l0 1089
65 0 65 0 0 -940 0 -940 453 0 453 0 32 45 32 45 -440 0 -440 0 -2 943 -3 942
-235 0 -234 0 -87 -150 c-274 -475 -468 -805 -473 -805 -4 0 -178 277 -457
727 l-144 233 -132 0 -133 0 0 -1185z m2897 1094 c74 -10 242 -58 272 -78 13
-8 12 -17 -4 -65 -11 -31 -24 -55 -30 -52 -174 72 -265 95 -370 96 -213 1
-390 -105 -460 -276 -22 -55 -29 -89 -33 -168 -7 -161 22 -255 108 -350 71
-77 133 -117 330 -216 350 -175 444 -269 488 -491 13 -69 14 -94 4 -162 -30
-208 -160 -346 -386 -411 l-88 -26 -441 0 -441 0 26 28 c14 15 33 39 43 55
l17 27 362 0 c402 0 453 6 556 61 73 38 123 92 159 168 23 50 26 68 26 171 0
110 -2 119 -33 182 -58 118 -135 179 -372 298 -250 125 -370 221 -435 350 -50
100 -65 161 -65 273 0 164 44 285 144 395 146 160 365 227 623 191z m-2592
-151 c183 -294 291 -469 422 -681 74 -119 139 -215 143 -212 5 3 77 123 161
268 84 144 196 336 249 427 53 91 119 204 146 252 l49 87 58 1 57 0 0 -1090 0
-1090 -60 0 -60 0 0 711 c1 392 -1 713 -3 715 -2 3 -164 -265 -502 -834 -86
-144 -99 -161 -110 -145 -6 10 -83 135 -170 278 -87 143 -199 328 -250 410
-51 83 -116 190 -146 239 l-54 89 -3 -731 -2 -732 -70 0 -70 0 0 1090 0 1090
63 0 63 0 89 -142z"/>
<path d="M1090 3217 c0 -41 6 -79 15 -96 29 -58 600 -1007 615 -1024 6 -7 57
75 275 448 45 77 140 239 211 359 l128 219 4 81 c3 72 2 79 -11 66 -8 -8 -144
-238 -303 -510 -158 -272 -290 -499 -294 -503 -4 -4 -141 216 -306 490 -164
273 -307 506 -316 517 -17 20 -17 19 -18 -47z"/>
</g>
</svg>
